<svg width="216" height="56" viewBox="0 0 216 56" fill="none" xmlns="http://www.w3.org/2000/svg">
<path d="M0 45.4886V10.5795H15.0682C17.6591 10.5795 19.9261 11.0909 21.8693 12.1136C23.8125 13.1364 25.3239 14.5739 26.4034 16.4261C27.483 18.2784 28.0227 20.4432 28.0227 22.9204C28.0227 25.4204 27.4659 27.5852 26.3523 29.4148C25.25 31.2443 23.6989 32.6534 21.6989 33.642C19.7102 34.6307 17.3864 35.125 14.7273 35.125H5.72727V27.7614H12.8182C13.9318 27.7614 14.8807 27.5682 15.6648 27.1818C16.4602 26.7841 17.0682 26.2216 17.4886 25.4943C17.9205 24.767 18.1364 23.9091 18.1364 22.9204C18.1364 21.9204 17.9205 21.0682 17.4886 20.3636C17.0682 19.6477 16.4602 19.1023 15.6648 18.7273C14.8807 18.3409 13.9318 18.1477 12.8182 18.1477H9.47727V45.4886H0Z" fill="black"/>
<path d="M31.5 45.4886V10.5795H46.5682C49.1591 10.5795 51.4261 11.0511 53.3693 11.9943C55.3125 12.9375 56.8239 14.2954 57.9034 16.0682C58.983 17.8409 59.5227 19.9659 59.5227 22.4432C59.5227 24.9432 58.9659 27.0511 57.8523 28.767C56.75 30.4829 55.1989 31.7784 53.1989 32.6534C51.2102 33.5284 48.8864 33.9659 46.2273 33.9659H37.2273V26.6023H44.3182C45.4318 26.6023 46.3807 26.4659 47.1648 26.1932C47.9602 25.9091 48.5682 25.4602 48.9886 24.8466C49.4205 24.2329 49.6364 23.4318 49.6364 22.4432C49.6364 21.4432 49.4205 20.6307 48.9886 20.0057C48.5682 19.3693 47.9602 18.9034 47.1648 18.6079C46.3807 18.3011 45.4318 18.1477 44.3182 18.1477H40.9773V45.4886H31.5ZM51.9545 29.4659L60.6818 45.4886H50.3864L41.8636 29.4659H51.9545Z" fill="black"/>
<path d="M63.5625 45.4886V10.5795H88.7216V18.2159H73.0398V24.2159H87.4261V31.8523H73.0398V37.8523H88.6534V45.4886H63.5625Z" fill="black"/>
<path d="M112.24 21.4886C112.149 20.3523 111.723 19.4659 110.962 18.8295C110.212 18.1932 109.07 17.875 107.536 17.875C106.558 17.875 105.757 17.9943 105.132 18.2329C104.518 18.4602 104.064 18.7727 103.768 19.1704C103.473 19.5682 103.32 20.0227 103.308 20.5341C103.286 20.9545 103.359 21.3352 103.53 21.6761C103.712 22.0057 103.996 22.3068 104.382 22.5795C104.768 22.8409 105.263 23.0795 105.865 23.2954C106.467 23.5114 107.183 23.7045 108.013 23.875L110.876 24.4886C112.808 24.8977 114.462 25.4375 115.837 26.1079C117.212 26.7784 118.337 27.5682 119.212 28.4773C120.087 29.375 120.729 30.3864 121.138 31.5114C121.558 32.6364 121.774 33.8636 121.786 35.1932C121.774 37.4886 121.2 39.4318 120.064 41.0227C118.928 42.6136 117.303 43.8239 115.189 44.6534C113.087 45.4829 110.558 45.8977 107.604 45.8977C104.57 45.8977 101.922 45.4489 99.6605 44.5511C97.4105 43.6534 95.6605 42.2727 94.4105 40.4091C93.1719 38.5341 92.5469 36.1364 92.5355 33.2159H101.536C101.592 34.2841 101.859 35.1818 102.337 35.9091C102.814 36.6364 103.484 37.1875 104.348 37.5625C105.223 37.9375 106.263 38.125 107.467 38.125C108.479 38.125 109.325 38 110.007 37.75C110.689 37.5 111.206 37.1534 111.558 36.7102C111.911 36.267 112.092 35.7614 112.104 35.1932C112.092 34.6591 111.916 34.1932 111.575 33.7954C111.246 33.3864 110.7 33.0227 109.939 32.7045C109.178 32.375 108.149 32.0682 106.854 31.7841L103.376 31.0341C100.286 30.3636 97.848 29.2443 96.0639 27.6761C94.2912 26.0966 93.4105 23.9432 93.4219 21.2159C93.4105 19 94.0014 17.0625 95.1946 15.4034C96.3991 13.7329 98.0639 12.4318 100.189 11.5C102.325 10.5682 104.774 10.1023 107.536 10.1023C110.354 10.1023 112.791 10.5739 114.848 11.517C116.905 12.4602 118.49 13.7898 119.604 15.5057C120.729 17.2102 121.297 19.2045 121.308 21.4886H112.24Z" fill="black"/>
<path d="M144.209 21.4886C144.118 20.3523 143.692 19.4659 142.93 18.8295C142.18 18.1932 141.038 17.875 139.504 17.875C138.527 17.875 137.726 17.9943 137.101 18.2329C136.487 18.4602 136.033 18.7727 135.737 19.1704C135.442 19.5682 135.288 20.0227 135.277 20.5341C135.254 20.9545 135.328 21.3352 135.499 21.6761C135.68 22.0057 135.964 22.3068 136.351 22.5795C136.737 22.8409 137.232 23.0795 137.834 23.2954C138.436 23.5114 139.152 23.7045 139.982 23.875L142.845 24.4886C144.777 24.8977 146.43 25.4375 147.805 26.1079C149.18 26.7784 150.305 27.5682 151.18 28.4773C152.055 29.375 152.697 30.3864 153.107 31.5114C153.527 32.6364 153.743 33.8636 153.754 35.1932C153.743 37.4886 153.169 39.4318 152.033 41.0227C150.896 42.6136 149.271 43.8239 147.158 44.6534C145.055 45.4829 142.527 45.8977 139.572 45.8977C136.538 45.8977 133.891 45.4489 131.629 44.5511C129.379 43.6534 127.629 42.2727 126.379 40.4091C125.141 38.5341 124.516 36.1364 124.504 33.2159H133.504C133.561 34.2841 133.828 35.1818 134.305 35.9091C134.783 36.6364 135.453 37.1875 136.317 37.5625C137.192 37.9375 138.232 38.125 139.436 38.125C140.447 38.125 141.294 38 141.976 37.75C142.658 37.5 143.175 37.1534 143.527 36.7102C143.879 36.267 144.061 35.7614 144.072 35.1932C144.061 34.6591 143.885 34.1932 143.544 33.7954C143.214 33.3864 142.669 33.0227 141.908 32.7045C141.146 32.375 140.118 32.0682 138.822 31.7841L135.345 31.0341C132.254 30.3636 129.817 29.2443 128.033 27.6761C126.26 26.0966 125.379 23.9432 125.391 21.2159C125.379 19 125.97 17.0625 127.163 15.4034C128.368 13.7329 130.033 12.4318 132.158 11.5C134.294 10.5682 136.743 10.1023 139.504 10.1023C142.322 10.1023 144.76 10.5739 146.817 11.517C148.874 12.4602 150.459 13.7898 151.572 15.5057C152.697 17.2102 153.266 19.2045 153.277 21.4886H144.209Z" fill="black"/>
<rect x="159.754" width="56" height="56" rx="8" fill="url(#paint0_radial_1234_559)"/>
<path d="M176.089 41L168.368 14.8182H176.294L179.874 30.9261H180.078L184.322 14.8182H190.561L194.805 30.9773H195.01L198.59 14.8182H206.516L198.794 41H191.993L187.544 26.375H187.34L182.891 41H176.089Z" fill="white"/>
<defs>
<radialGradient id="paint0_radial_1234_559" cx="0" cy="0" r="1" gradientUnits="userSpaceOnUse" gradientTransform="translate(187.754 28) rotate(90) scale(28)">
<stop stop-color="#FF8A00"/>
<stop offset="1" stop-color="#FF6534"/>
</radialGradient>
</defs>
</svg>
